<svg width="174.9" height="103.35" viewBox="0 0 174.9 103.35" xmlns="http://www.w3.org/2000/svg">
	<g id="svgGroup" stroke-linecap="round" fill-rule="evenodd" font-size="9pt" stroke="#000" stroke-width="0.25mm" fill="none" style="stroke:#000;stroke-width:0.25mm;fill:none">
		<path d="M 14.4 103.35 L 0 103.35 L 0 0 L 23.7 0 L 60.9 87.3 L 63.9 87.3 L 63.9 0 L 78.3 0 L 78.3 103.35 L 55.05 103.35 L 17.25 15.9 L 14.4 15.9 L 14.4 103.35 Z" id="0" vector-effect="non-scaling-stroke"/>
		<path d="M 142.05 103.35 L 101.7 103.35 L 101.7 0 L 140.4 0 Q 148.409 0 154.429 1.665 A 33.269 33.269 0 0 1 157.575 2.7 Q 164.55 5.4 168.225 11.175 A 21.802 21.802 0 0 1 170.893 17.48 Q 171.617 20.285 171.82 23.589 A 43.298 43.298 0 0 1 171.9 26.25 A 48.424 48.424 0 0 1 171.689 30.905 Q 171.338 34.538 170.4 37.35 A 23.302 23.302 0 0 1 168.378 41.846 A 19 19 0 0 1 166.125 44.925 A 21.999 21.999 0 0 1 161.518 48.768 A 27.066 27.066 0 0 1 159.15 50.1 A 30.228 30.228 0 0 1 167.137 54.439 A 28.687 28.687 0 0 1 167.25 54.525 A 17.212 17.212 0 0 1 171.592 59.528 A 21.99 21.99 0 0 1 172.875 62.1 Q 174.9 66.9 174.9 74.25 A 48.912 48.912 0 0 1 174.573 80.069 Q 174.028 84.61 172.575 88.125 A 22.854 22.854 0 0 1 169.426 93.582 A 19.435 19.435 0 0 1 165.9 97.05 A 26.412 26.412 0 0 1 159.147 100.721 A 33.105 33.105 0 0 1 155.475 101.85 Q 149.4 103.35 142.05 103.35 Z M 116.1 56.7 L 116.1 91.5 L 141.3 91.5 A 38.349 38.349 0 0 0 145.89 91.24 Q 148.25 90.955 150.268 90.358 A 21.121 21.121 0 0 0 151.575 89.925 Q 155.85 88.35 158.25 84.525 Q 159.96 81.8 160.452 77.437 A 33.901 33.901 0 0 0 160.65 73.65 Q 160.65 68.1 158.625 64.725 A 15.106 15.106 0 0 0 156.096 61.527 A 12.817 12.817 0 0 0 153.525 59.625 Q 150.45 57.9 147.075 57.3 Q 143.7 56.7 140.7 56.7 L 116.1 56.7 Z M 116.1 11.85 L 116.1 45 L 140.55 45 Q 144.934 45 148.099 44.047 A 14.774 14.774 0 0 0 150.45 43.125 Q 154.2 41.25 155.925 37.425 A 17.735 17.735 0 0 0 157.089 33.764 Q 157.466 31.965 157.59 29.869 A 35.988 35.988 0 0 0 157.65 27.75 A 24.279 24.279 0 0 0 157.261 23.249 Q 156.793 20.77 155.759 18.855 A 11.177 11.177 0 0 0 153.225 15.675 A 13.637 13.637 0 0 0 148.85 13.199 Q 146.849 12.482 144.377 12.147 A 35.2 35.2 0 0 0 139.65 11.85 L 116.1 11.85 Z" id="1" vector-effect="non-scaling-stroke"/>
	</g>
</svg>